<mxfile host="" modified="2022-02-02T15:13:06.878Z" agent="5.0 (X11; Linux x86_64) AppleWebKit/537.36 (KHTML, like Gecko) Code/1.45.1 Chrome/78.0.3904.130 Electron/7.2.4 Safari/537.36" etag="rbB3IUO4ntbklQ3OVXu8" version="13.1.3">
    <diagram id="6hGFLwfOUW9BJ-s0fimq" name="Page-1">
        <mxGraphModel dx="249" dy="113" grid="1" gridSize="10" guides="1" tooltips="1" connect="1" arrows="1" fold="1" page="1" pageScale="1" pageWidth="827" pageHeight="1169" math="0" shadow="0">
            <root>
                <mxCell id="0"/>
                <mxCell id="1" parent="0"/>
                <mxCell id="12" value="" style="rounded=0;whiteSpace=wrap;html=1;fillColor=none;" parent="1" vertex="1">
                    <mxGeometry x="260" y="140" width="300" height="180" as="geometry"/>
                </mxCell>
                <mxCell id="14" value="" style="rounded=0;whiteSpace=wrap;html=1;fillColor=none;" parent="1" vertex="1">
                    <mxGeometry x="430" y="140" width="130" height="140" as="geometry"/>
                </mxCell>
                <mxCell id="13" value="" style="rounded=0;whiteSpace=wrap;html=1;fillColor=none;" parent="1" vertex="1">
                    <mxGeometry x="260" y="180" width="160" height="140" as="geometry"/>
                </mxCell>
                <mxCell id="2" value="5" style="ellipse;whiteSpace=wrap;html=1;aspect=fixed;connectable=0;allowArrows=0;resizable=0;" parent="1" vertex="1">
                    <mxGeometry x="310" y="180" width="20" height="20" as="geometry"/>
                </mxCell>
                <mxCell id="3" value="9" style="ellipse;whiteSpace=wrap;html=1;aspect=fixed;connectable=0;allowArrows=0;resizable=0;" parent="1" vertex="1">
                    <mxGeometry x="320" y="260" width="20" height="20" as="geometry"/>
                </mxCell>
                <mxCell id="4" value="3" style="ellipse;whiteSpace=wrap;html=1;aspect=fixed;connectable=0;allowArrows=0;resizable=0;" parent="1" vertex="1">
                    <mxGeometry x="400" y="280" width="20" height="20" as="geometry"/>
                </mxCell>
                <mxCell id="5" value="4" style="ellipse;whiteSpace=wrap;html=1;aspect=fixed;connectable=0;allowArrows=0;resizable=0;" parent="1" vertex="1">
                    <mxGeometry x="370" y="210" width="20" height="20" as="geometry"/>
                </mxCell>
                <mxCell id="6" value="1" style="ellipse;whiteSpace=wrap;html=1;aspect=fixed;connectable=0;allowArrows=0;resizable=0;" parent="1" vertex="1">
                    <mxGeometry x="480" y="220" width="20" height="20" as="geometry"/>
                </mxCell>
                <mxCell id="7" value="6" style="ellipse;whiteSpace=wrap;html=1;aspect=fixed;connectable=0;allowArrows=0;resizable=0;" parent="1" vertex="1">
                    <mxGeometry x="430" y="210" width="20" height="20" as="geometry"/>
                </mxCell>
                <mxCell id="8" value="7" style="ellipse;whiteSpace=wrap;html=1;aspect=fixed;connectable=0;allowArrows=0;resizable=0;" parent="1" vertex="1">
                    <mxGeometry x="490" y="140" width="20" height="20" as="geometry"/>
                </mxCell>
                <mxCell id="9" value="8" style="ellipse;whiteSpace=wrap;html=1;aspect=fixed;connectable=0;allowArrows=0;resizable=0;" parent="1" vertex="1">
                    <mxGeometry x="530" y="260" width="20" height="20" as="geometry"/>
                </mxCell>
                <mxCell id="10" value="2" style="ellipse;whiteSpace=wrap;html=1;aspect=fixed;connectable=0;allowArrows=0;resizable=0;" parent="1" vertex="1">
                    <mxGeometry x="540" y="180" width="20" height="20" as="geometry"/>
                </mxCell>
                <mxCell id="11" value="0" style="ellipse;whiteSpace=wrap;html=1;aspect=fixed;connectable=0;allowArrows=0;resizable=0;" parent="1" vertex="1">
                    <mxGeometry x="260" y="300" width="20" height="20" as="geometry"/>
                </mxCell>
                <mxCell id="15" value="0" style="rounded=0;whiteSpace=wrap;html=1;fillColor=none;" parent="1" vertex="1">
                    <mxGeometry x="260" y="140" width="20" height="20" as="geometry"/>
                </mxCell>
                <mxCell id="18" value="1" style="rounded=0;whiteSpace=wrap;html=1;fillColor=none;" parent="1" vertex="1">
                    <mxGeometry x="400" y="180" width="20" height="20" as="geometry"/>
                </mxCell>
                <mxCell id="20" value="2" style="rounded=0;whiteSpace=wrap;html=1;fillColor=none;" parent="1" vertex="1">
                    <mxGeometry x="430" y="260" width="20" height="20" as="geometry"/>
                </mxCell>
                <mxCell id="22" value="0" style="rounded=0;whiteSpace=wrap;html=1;" parent="1" vertex="1">
                    <mxGeometry x="250" y="430" width="40" height="30" as="geometry"/>
                </mxCell>
                <mxCell id="23" value="3" style="rounded=0;whiteSpace=wrap;html=1;" parent="1" vertex="1">
                    <mxGeometry x="290" y="430" width="40" height="30" as="geometry"/>
                </mxCell>
                <mxCell id="24" value="4" style="rounded=0;whiteSpace=wrap;html=1;" parent="1" vertex="1">
                    <mxGeometry x="330" y="430" width="40" height="30" as="geometry"/>
                </mxCell>
                <mxCell id="25" value="5" style="rounded=0;whiteSpace=wrap;html=1;" parent="1" vertex="1">
                    <mxGeometry x="370" y="430" width="40" height="30" as="geometry"/>
                </mxCell>
                <mxCell id="26" value="9" style="rounded=0;whiteSpace=wrap;html=1;" parent="1" vertex="1">
                    <mxGeometry x="410" y="430" width="40" height="30" as="geometry"/>
                </mxCell>
                <mxCell id="27" value="1" style="rounded=0;whiteSpace=wrap;html=1;" parent="1" vertex="1">
                    <mxGeometry x="450" y="430" width="40" height="30" as="geometry"/>
                </mxCell>
                <mxCell id="28" value="2" style="rounded=0;whiteSpace=wrap;html=1;" parent="1" vertex="1">
                    <mxGeometry x="490" y="430" width="40" height="30" as="geometry"/>
                </mxCell>
                <mxCell id="29" value="6" style="rounded=0;whiteSpace=wrap;html=1;" parent="1" vertex="1">
                    <mxGeometry x="530" y="430" width="40" height="30" as="geometry"/>
                </mxCell>
                <mxCell id="30" value="7" style="rounded=0;whiteSpace=wrap;html=1;" parent="1" vertex="1">
                    <mxGeometry x="570" y="430" width="40" height="30" as="geometry"/>
                </mxCell>
                <mxCell id="31" value="8" style="rounded=0;whiteSpace=wrap;html=1;" parent="1" vertex="1">
                    <mxGeometry x="610" y="430" width="40" height="30" as="geometry"/>
                </mxCell>
                <mxCell id="34" value="" style="shape=curlyBracket;whiteSpace=wrap;html=1;rounded=1;fillColor=#ffffff;rotation=-90;" parent="1" vertex="1">
                    <mxGeometry x="340" y="380" width="20" height="200" as="geometry"/>
                </mxCell>
                <mxCell id="35" value="" style="shape=curlyBracket;whiteSpace=wrap;html=1;rounded=1;fillColor=#ffffff;rotation=-90;" parent="1" vertex="1">
                    <mxGeometry x="540" y="380" width="20" height="200" as="geometry"/>
                </mxCell>
                <mxCell id="36" value="node 1" style="text;html=1;align=center;verticalAlign=middle;resizable=0;points=[];autosize=1;" parent="1" vertex="1">
                    <mxGeometry x="325" y="490" width="50" height="20" as="geometry"/>
                </mxCell>
                <mxCell id="37" value="node 2" style="text;html=1;align=center;verticalAlign=middle;resizable=0;points=[];autosize=1;" parent="1" vertex="1">
                    <mxGeometry x="525" y="490" width="50" height="20" as="geometry"/>
                </mxCell>
                <mxCell id="38" value="0" style="rounded=0;whiteSpace=wrap;html=1;" parent="1" vertex="1">
                    <mxGeometry x="250.5" y="360" width="40" height="30" as="geometry"/>
                </mxCell>
                <mxCell id="39" value="1" style="rounded=0;whiteSpace=wrap;html=1;" parent="1" vertex="1">
                    <mxGeometry x="290.5" y="360" width="40" height="30" as="geometry"/>
                </mxCell>
                <mxCell id="40" value="2" style="rounded=0;whiteSpace=wrap;html=1;" parent="1" vertex="1">
                    <mxGeometry x="330.5" y="360" width="40" height="30" as="geometry"/>
                </mxCell>
                <mxCell id="41" value="storage_buffer" style="text;html=1;align=center;verticalAlign=middle;resizable=0;points=[];autosize=1;" parent="1" vertex="1">
                    <mxGeometry x="245" y="400" width="90" height="20" as="geometry"/>
                </mxCell>
                <mxCell id="42" value="node_buffer" style="text;html=1;align=center;verticalAlign=middle;resizable=0;points=[];autosize=1;" parent="1" vertex="1">
                    <mxGeometry x="245" y="330" width="80" height="20" as="geometry"/>
                </mxCell>
                <mxCell id="43" value="" style="shape=curlyBracket;whiteSpace=wrap;html=1;rounded=1;fillColor=#ffffff;rotation=-90;" vertex="1" parent="1">
                    <mxGeometry x="440.63" y="320.63" width="19.37" height="399.38" as="geometry"/>
                </mxCell>
                <mxCell id="44" value="node 0" style="text;html=1;align=center;verticalAlign=middle;resizable=0;points=[];autosize=1;" vertex="1" parent="1">
                    <mxGeometry x="420" y="528" width="50" height="20" as="geometry"/>
                </mxCell>
            </root>
        </mxGraphModel>
    </diagram>
</mxfile>